<svg class="railroad-diagram" width="1378" height="532" viewBox="0 0 1378 532" xmlns="http://www.w3.org/2000/svg" xmlns:xlink="http://www.w3.org/1999/xlink">
<g transform="translate(.5 .5)">
<g>
<path d="M20 225v20m10 -20v20m-10 -10h20"></path>
</g>
<path d="M40 235h10"></path>
<g>
<path d="M50 235h0"></path>
<path d="M1060 235h0"></path>
<g class="terminal ">
<path d="M50 235h0"></path>
<path d="M126 235h0"></path>
<rect x="50" y="224" width="76" height="22" rx="10" ry="10"></rect>
<text x="88" y="239">ANALYZE</text>
</g>
<path d="M126 235h10"></path>
<g>
<path d="M136 235h0"></path>
<path d="M1060 235h0"></path>
<path d="M136 235h20"></path>
<g>
<path d="M156 235h0"></path>
<path d="M1040 235h0"></path>
<g class="terminal ">
<path d="M156 235h0"></path>
<path d="M216 235h0"></path>
<rect x="156" y="224" width="60" height="22" rx="10" ry="10"></rect>
<text x="186" y="239">TABLE</text>
</g>
<path d="M216 235h10"></path>
<g>
<path d="M226 235h0"></path>
<path d="M1040 235h0"></path>
<path d="M226 235a10 10 0 0 0 10 -10v-184a10 10 0 0 1 10 -10"></path>
<g>
<path d="M246 31h222"></path>
<path d="M798 31h222"></path>
<g class="non-terminal ">
<path d="M468 31h0"></path>
<path d="M592 31h0"></path>
<rect x="468" y="20" width="124" height="22"></rect>
<text x="530" y="35">TableNameList</text>
</g>
<path d="M592 31h10"></path>
<g>
<path d="M602 31h0"></path>
<path d="M798 31h0"></path>
<path d="M602 31h20"></path>
<g class="terminal ">
<path d="M622 31h24"></path>
<path d="M754 31h24"></path>
<rect x="646" y="20" width="108" height="22" rx="10" ry="10"></rect>
<text x="700" y="35">ALL COLUMNS</text>
</g>
<path d="M778 31h20"></path>
<path d="M602 31a10 10 0 0 1 10 10v42a10 10 0 0 0 10 10"></path>
<g class="terminal ">
<path d="M622 93h0"></path>
<path d="M778 93h0"></path>
<rect x="622" y="82" width="156" height="22" rx="10" ry="10"></rect>
<text x="700" y="97">PREDICATE COLUMNS</text>
</g>
<path d="M778 93a10 10 0 0 0 10 -10v-42a10 10 0 0 1 10 -10"></path>
</g>
</g>
<path d="M1020 31a10 10 0 0 1 10 10v184a10 10 0 0 0 10 10"></path>
<path d="M226 235h20"></path>
<g>
<path d="M246 235h0"></path>
<path d="M1020 235h0"></path>
<g class="non-terminal ">
<path d="M246 235h0"></path>
<path d="M338 235h0"></path>
<rect x="246" y="224" width="92" height="22"></rect>
<text x="292" y="239">TableName</text>
</g>
<path d="M338 235h10"></path>
<g>
<path d="M348 235h0"></path>
<path d="M1020 235h0"></path>
<path d="M348 235a10 10 0 0 0 10 -10v-71a10 10 0 0 1 10 -10"></path>
<g>
<path d="M368 144h632"></path>
</g>
<path d="M1000 144a10 10 0 0 1 10 10v71a10 10 0 0 0 10 10"></path>
<path d="M348 235h20"></path>
<g>
<path d="M368 235h0"></path>
<path d="M1000 235h0"></path>
<path d="M368 235h20"></path>
<g>
<path d="M388 235h179"></path>
<path d="M801 235h179"></path>
<g class="terminal ">
<path d="M567 235h0"></path>
<path d="M627 235h0"></path>
<rect x="567" y="224" width="60" height="22" rx="10" ry="10"></rect>
<text x="597" y="239">INDEX</text>
</g>
<path d="M627 235h10"></path>
<g>
<path d="M637 235h0"></path>
<path d="M801 235h0"></path>
<path d="M637 235a10 10 0 0 0 10 -10v-31a10 10 0 0 1 10 -10"></path>
<g>
<path d="M657 184h124"></path>
</g>
<path d="M781 184a10 10 0 0 1 10 10v31a10 10 0 0 0 10 10"></path>
<path d="M637 235h20"></path>
<g class="non-terminal ">
<path d="M657 235h0"></path>
<path d="M781 235h0"></path>
<rect x="657" y="224" width="124" height="22"></rect>
<text x="719" y="239">IndexNameList</text>
</g>
<path d="M781 235h20"></path>
</g>
</g>
<path d="M980 235h20"></path>
<path d="M368 235a10 10 0 0 1 10 10v42a10 10 0 0 0 10 10"></path>
<g class="non-terminal ">
<path d="M388 297h210"></path>
<path d="M770 297h210"></path>
<rect x="598" y="286" width="172" height="22"></rect>
<text x="684" y="301">AnalyzeColumnOption</text>
</g>
<path d="M980 297a10 10 0 0 0 10 -10v-42a10 10 0 0 1 10 -10"></path>
<path d="M368 235a10 10 0 0 1 10 10v184a10 10 0 0 0 10 10"></path>
<g>
<path d="M388 439h0"></path>
<path d="M980 439h0"></path>
<g class="terminal ">
<path d="M388 439h0"></path>
<path d="M480 439h0"></path>
<rect x="388" y="428" width="92" height="22" rx="10" ry="10"></rect>
<text x="434" y="443">PARTITION</text>
</g>
<path d="M480 439h10"></path>
<path d="M490 439h10"></path>
<g class="non-terminal ">
<path d="M500 439h0"></path>
<path d="M656 439h0"></path>
<rect x="500" y="428" width="156" height="22"></rect>
<text x="578" y="443">PartitionNameList</text>
</g>
<path d="M656 439h10"></path>
<g>
<path d="M666 439h0"></path>
<path d="M980 439h0"></path>
<path d="M666 439a10 10 0 0 0 10 -10v-71a10 10 0 0 1 10 -10"></path>
<g>
<path d="M686 348h274"></path>
</g>
<path d="M960 348a10 10 0 0 1 10 10v71a10 10 0 0 0 10 10"></path>
<path d="M666 439h20"></path>
<g>
<path d="M686 439h0"></path>
<path d="M960 439h0"></path>
<path d="M686 439h20"></path>
<g>
<path d="M706 439h0"></path>
<path d="M940 439h0"></path>
<g class="terminal ">
<path d="M706 439h0"></path>
<path d="M766 439h0"></path>
<rect x="706" y="428" width="60" height="22" rx="10" ry="10"></rect>
<text x="736" y="443">INDEX</text>
</g>
<path d="M766 439h10"></path>
<g>
<path d="M776 439h0"></path>
<path d="M940 439h0"></path>
<path d="M776 439a10 10 0 0 0 10 -10v-31a10 10 0 0 1 10 -10"></path>
<g>
<path d="M796 388h124"></path>
</g>
<path d="M920 388a10 10 0 0 1 10 10v31a10 10 0 0 0 10 10"></path>
<path d="M776 439h20"></path>
<g class="non-terminal ">
<path d="M796 439h0"></path>
<path d="M920 439h0"></path>
<rect x="796" y="428" width="124" height="22"></rect>
<text x="858" y="443">IndexNameList</text>
</g>
<path d="M920 439h20"></path>
</g>
</g>
<path d="M940 439h20"></path>
<path d="M686 439a10 10 0 0 1 10 10v42a10 10 0 0 0 10 10"></path>
<g class="non-terminal ">
<path d="M706 501h31"></path>
<path d="M909 501h31"></path>
<rect x="737" y="490" width="172" height="22"></rect>
<text x="823" y="505">AnalyzeColumnOption</text>
</g>
<path d="M940 501a10 10 0 0 0 10 -10v-42a10 10 0 0 1 10 -10"></path>
</g>
<path d="M960 439h20"></path>
</g>
</g>
<path d="M980 439a10 10 0 0 0 10 -10v-184a10 10 0 0 1 10 -10"></path>
</g>
<path d="M1000 235h20"></path>
</g>
</g>
<path d="M1020 235h20"></path>
</g>
</g>
<path d="M1040 235h20"></path>
</g>
</g>
<path d="M1060 235h10"></path>
<g>
<path d="M1070 235h0"></path>
<path d="M1338 235h0"></path>
<path d="M1070 235a10 10 0 0 0 10 -10v-31a10 10 0 0 1 10 -10"></path>
<g>
<path d="M1090 184h228"></path>
</g>
<path d="M1318 184a10 10 0 0 1 10 10v31a10 10 0 0 0 10 10"></path>
<path d="M1070 235h20"></path>
<g>
<path d="M1090 235h0"></path>
<path d="M1318 235h0"></path>
<g class="terminal ">
<path d="M1090 235h0"></path>
<path d="M1142 235h0"></path>
<rect x="1090" y="224" width="52" height="22" rx="10" ry="10"></rect>
<text x="1116" y="239">WITH</text>
</g>
<path d="M1142 235h10"></path>
<path d="M1152 235h10"></path>
<g class="non-terminal ">
<path d="M1162 235h0"></path>
<path d="M1318 235h0"></path>
<rect x="1162" y="224" width="156" height="22"></rect>
<text x="1240" y="239">AnalyzeOptionList</text>
</g>
</g>
<path d="M1318 235h20"></path>
</g>
<path d="M 1338 235 h 20 m -10 -10 v 20 m 10 -20 v 20"></path>
</g>
<style>
	path {
		stroke-width: 3;
		stroke: black;
		fill: white;
	}
	text {
		font: bold 14px monospace;
		text-anchor: middle;
		white-space: pre;
		fill: white;
	}
	text.diagram-text {
		font-size: 12px;
		fill: white;
	}
	text.diagram-arrow {
		font-size: 16px;
		fill: white;
	}
	text.label {
		text-anchor: start;
		fill: white;
	}
	text.comment {
		font: italic 12px monospace;
		fill: white;
	}
	g.non-terminal text {
		/&#42;font-style: italic;&#42;/
		fill: white;
	}
	rect {
		stroke-width: 3;
		stroke: black;
		fill: black;
	}
	rect.group-box {
		stroke: gray;
		stroke-dasharray: 10 5;
		fill: none;
	}
	path.diagram-text {
		stroke-width: 3;
		stroke: white;
		fill: white;
		cursor: help;
	}
	g.diagram-text:hover path.diagram-text {
		fill: #eee;
	}
</style>
</svg>
